:SAMPLES-PER-SECOND 30
:FRAME-RANGE 1-3358
:FULLY-SPECIFIED
:DEGREES
210
root  -65.2558 38.684 -12.9045 5.03183 64.0457 -1.44873
RightUpLeg  -7.77559 -15.1817 -1.73232
RightLeg  21.2304 -8.28569 -3.74658
RightFoot  -17.7641 0.272564 6.99912
RightToes  -1.11029e-010 1.2921e-014 -6.02303e-014
Spine  -4.8864 0.872071 3.36985
Spine1  9.19708 1.66602 -3.67077
HEad  8.20575 18.4967 -1.44071
LeftShoulder1  0.754954 0.456161 -20.2933
LeftArm  -1.49991 15.8609 -42.5435
LeftForeArm  33.0089 0.000182733 -12.6633
LeftHand  -0.012229 5.878 3.70215
RightShoulder  2.17828 3.73108 24.9155
RightArm  -9.6297 12.7342 59.3546
RightForeArm  58.9058 5.63513 10.7889
RightHand  0.0489089 -5.88564 -15.2269
LeftUpLeg  -13.5749 6.66426 19.9077
LeftLeg  14.693 21.167 8.10611
LeftFoot  -10.9885 0.0859566 -6.54622
LeftToes  -1.90334e-010 -8.83595e-011 4.99953e-011
211
root  -65.2706 38.7987 -11.8946 6.11215 59.8836 -0.000671387
RightUpLeg  -6.6799 -14.3151 -1.66181
RightLeg  19.9354 -5.43568 -2.3919
RightFoot  -17.8679 0.216826 5.92407
RightToes  -1.11029e-010 1.2921e-014 -6.02303e-014
Spine  -4.5842 1.27906 5.29425
Spine1  8.9219 2.21559 -4.09577
HEad  9.21098 19.8876 -2.41778
LeftShoulder1  0.751101 0.515676 -20.75
LeftArm  -1.72761 15.6146 -43.2945
LeftForeArm  33.2419 1.12512 -12.7231
LeftHand  -0.0170404 5.79793 3.25567
RightShoulder  2.21732 3.91538 24.6568
RightArm  -12.3988 13.3558 59.8106
RightForeArm  60.3561 3.38244 10.0541
RightHand  0.114544 -6.32885 -16.1396
LeftUpLeg  -15.2534 1.12537 17.3942
LeftLeg  19.2581 14.22 5.76996
LeftFoot  -11.7933 0.0433247 -6.906
LeftToes  -1.90334e-010 -8.83595e-011 4.99953e-011
212
root  -65.2189 38.8663 -10.9112 7.03702 54.995 1.08347
RightUpLeg  -5.93168 -11.7293 -1.73881
RightLeg  19.1394 -3.63094 -1.30029
RightFoot  -18.0956 0.159379 4.77742
RightToes  -1.11029e-010 1.2921e-014 -6.02303e-014
Spine  -4.28131 2.35673 7.8354
Spine1  9.05839 3.62989 -5.34863
HEad  9.25138 21.3504 -3.97668
LeftShoulder1  0.687038 0.78035 -21.0534
LeftArm  -2.55847 14.8678 -44.7897
LeftForeArm  34.1494 1.9672 -12.5247
LeftHand  -0.0263668 5.89952 2.57903
RightShoulder  2.33534 4.50947 23.7982
RightArm  -13.1854 14.7264 60.5345
RightForeArm  60.1072 1.68685 9.41476
RightHand  0.137122 -6.49757 -16.0892
LeftUpLeg  -17.8038 -0.378123 13.0533
LeftLeg  24.0918 9.79317 5.0836
LeftFoot  -12.0419 0.0322884 -6.50469
LeftToes  -1.90334e-010 -8.83595e-011 4.99953e-011
213
root  -65.098 38.9057 -9.94928 7.65811 49.7146 1.92419
RightUpLeg  -5.08295 -10.0349 -2.15053
RightLeg  18.5384 -0.527102 0.0496293
RightFoot  -18.4251 0.0768954 3.25819
RightToes  -1.11029e-010 1.2921e-014 -6.02303e-014
Spine  -3.44303 3.56335 10.3519
Spine1  9.03615 5.24419 -6.88915
HEad  8.84928 23.3534 -5.9838
LeftShoulder1  0.591191 1.17534 -21.6342
LeftArm  -3.1403 14.4732 -46.1336
LeftForeArm  34.0648 2.25425 -12.3858
LeftHand  -0.0254536 5.61548 2.16701
RightShoulder  2.38316 4.91844 22.8458
RightArm  -14.4575 16.8393 62.1535
RightForeArm  61.5439 -0.225156 8.28376
RightHand  0.10869 -6.3442 -15.3007
LeftUpLeg  -20.6291 -0.498166 8.23009
LeftLeg  28.198 8.7977 5.41633
LeftFoot  -12.7799 -0.00986165 -6.8722
LeftToes  -1.90334e-010 -8.83595e-011 4.99953e-011
214
root  -64.9213 38.9126 -8.93984 7.90811 45.3617 2.32385
RightUpLeg  -3.87129 -7.63924 -2.08303
RightLeg  17.7793 1.03877 0.564486
RightFoot  -18.7597 0.00367085 2.01581
RightToes  -1.11029e-010 1.2921e-014 -6.02303e-014
Spine  -2.49938 4.35234 12.2276
Spine1  8.76691 6.2425 -7.73419
HEad  8.28186 25.5445 -7.91783
LeftShoulder1  0.458893 1.69025 -22.3337
LeftArm  -3.31271 14.4471 -46.9975
LeftForeArm  33.7274 2.24694 -12.3776
LeftHand  -0.0270645 5.58549 1.83252
RightShoulder  2.51319 5.56305 22.1743
RightArm  -14.2437 19.8171 62.9407
RightForeArm  61.5043 -2.13863 7.82344
RightHand  0.062945 -6.05594 -14.0809
LeftUpLeg  -23.921 0.000486047 3.47462
LeftLeg  30.9344 10.0908 6.80778
LeftFoot  -13.7248 -0.0564402 -6.65689
LeftToes  -1.90334e-010 -8.83595e-011 4.99953e-011
215
root  -64.6985 38.8713 -7.84949 8.21185 41.4723 2.74707
RightUpLeg  -2.50479 -6.50379 -2.21431
RightLeg  17.2452 3.42032 1.21945
RightFoot  -19.3508 -0.0831177 0.683403
RightToes  -1.11029e-010 1.2921e-014 -6.02303e-014
Spine  -1.95722 5.06119 13.1033
Spine1  8.80456 6.9655 -7.82104
HEad  7.66903 27.6513 -9.57313
LeftShoulder1  0.338341 2.13511 -22.8688
LeftArm  -3.55729 14.6513 -47.6937
LeftForeArm  34.304 2.27618 -12.3417
LeftHand  -0.0257003 5.51872 1.71861
RightShoulder  2.56418 5.80121 21.9843
RightArm  -14.3712 22.6412 64.0037
RightForeArm  61.942 -3.38298 7.15511
RightHand  0.0381789 -5.8855 -13.2327
LeftUpLeg  -27.132 0.402175 -1.23559
LeftLeg  31.5029 12.7723 8.65264
LeftFoot  -13.1165 -0.00996169 -5.70936
LeftToes  -1.90334e-010 -8.83595e-011 4.99953e-011
